<?xml version="1.0" standalone="no"?>
<!DOCTYPE svg PUBLIC "-//W3C//DTD SVG 1.1//EN" "http://www.w3.org/Graphics/SVG/1.1/DTD/svg11.dtd" >
<svg xmlns="http://www.w3.org/2000/svg">
<metadata>
Created by FontForge 20120731 at Mon Jul 24 18:33:03 2017
 By admin
</metadata>
<defs>
<font id="iconfont" horiz-adv-x="1024" >
  <font-face 
    font-family="iconfont"
    font-weight="500"
    font-stretch="normal"
    units-per-em="1024"
    panose-1="2 0 6 3 0 0 0 0 0 0"
    ascent="896"
    descent="-128"
    x-height="792"
    bbox="0 -212 1676 896.429"
    underline-thickness="0"
    underline-position="0"
    unicode-range="U+0078-E77E"
  />
<missing-glyph 
 />
    <glyph glyph-name=".notdef" 
 />
    <glyph glyph-name=".notdef" 
 />
    <glyph glyph-name=".null" horiz-adv-x="0" 
 />
    <glyph glyph-name="nonmarkingreturn" horiz-adv-x="341" 
 />
    <glyph glyph-name="x" unicode="x" horiz-adv-x="1001" 
d="M281 543q-27 -1 -53 -1h-83q-18 0 -36.5 -6t-32.5 -18.5t-23 -32t-9 -45.5v-76h912v41q0 16 -0.5 30t-0.5 18q0 13 -5 29t-17 29.5t-31.5 22.5t-49.5 9h-133v-97h-438v97zM955 310v-52q0 -23 0.5 -52t0.5 -58t-10.5 -47.5t-26 -30t-33 -16t-31.5 -4.5q-14 -1 -29.5 -0.5
t-29.5 0.5h-32l-45 128h-439l-44 -128h-29h-34q-20 0 -45 1q-25 0 -41 9.5t-25.5 23t-13.5 29.5t-4 30v167h911zM163 247q-12 0 -21 -8.5t-9 -21.5t9 -21.5t21 -8.5q13 0 22 8.5t9 21.5t-9 21.5t-22 8.5zM316 123q-8 -26 -14 -48q-5 -19 -10.5 -37t-7.5 -25t-3 -15t1 -14.5
t9.5 -10.5t21.5 -4h37h67h81h80h64h36q23 0 34 12t2 38q-5 13 -9.5 30.5t-9.5 34.5q-5 19 -11 39h-368zM336 498v228q0 11 2.5 23t10 21.5t20.5 15.5t34 6h188q31 0 51.5 -14.5t20.5 -52.5v-227h-327z" />
    <glyph glyph-name="narrow" unicode="&#xe63b;" 
d="M948 2h1l-255 257q77 94 81 213q3 70 -22 139t-74 120q-41 45 -96.5 73.5t-115.5 36.5q-23 3 -47 3q-123 0 -217 -74q-53 -40 -88 -98.5t-46 -123.5q-10 -61 1 -124t42 -116q43 -75 116 -122q66 -43 145 -53q23 -4 47 -4q113 0 204 65l254 -256l5 -4v0q13 -11 30 -11
q20 0 33.5 14t13.5 34q0 17 -12 31v0zM471 188q-67 -12 -133 7q-63 17 -113.5 60.5t-77.5 102.5q-32 66 -28.5 143t41.5 140q33 58 89 96.5t122 48.5l6 1q6 1 10 2q16 1 32 1q68 0 127 -28q54 -24 94.5 -67.5t61.5 -98.5q22 -59 19 -124t-31 -121q-31 -64 -90 -108t-129 -55
zM249 514h342v-54h-342v54z" />
    <glyph glyph-name="android" unicode="&#xe6ef;" 
d="M896 512q-26 0 -45 -19t-19 -45v-256q0 -26 19 -45t45 -19t45 19t19 45v256q0 26 -19 45t-45 19zM128 512q-26 0 -45 -19t-19 -45v-256q0 -26 19 -45t45 -19t45 19t19 45v256q0 26 -19 45t-45 19zM224 160q0 -40 28 -68t68 -28v0v-128q0 -26 19 -45t45 -19t45 19t19 45
v128h128v-128q0 -26 19 -45t45 -19t45 19t19 45v128q40 0 68 28t28 68v352h-576v-352v0zM798 576q-7 65 -41.5 120t-87.5 90l32 64q6 12 1.5 24.5t-16.5 18.5t-24.5 1.5t-18.5 -16.5l-32 -64l-8 3q-44 15 -91 15t-91 -15l-8 -3l-32 64q-6 12 -18.5 16.5t-24.5 -1.5
t-16.5 -18.5t1.5 -24.5l32 -64q-53 -35 -87.5 -90t-41.5 -120v-32h574v32h-2v0zM416 640q-13 0 -22.5 9.5t-9.5 22.5t9.5 22.5t22.5 9.5v0v0q13 0 22.5 -9.5t9.5 -22.5t-9.5 -22.5t-22.5 -9.5zM608 640q-13 0 -22.5 9.5t-9.5 22.5t9.5 22.5t22.5 9.5v0v0q13 0 22.5 -9.5
t9.5 -22.5t-9.5 -22.5t-22.5 -9.5v0z" />
    <glyph glyph-name="tel-empty" unicode="&#xe618;" 
d="M789 -61q-37 -6 -83 6q-244 57 -405 215t-219 397l-1 1v7q-8 34 -9 92q-1 67 42.5 114t116.5 58q13 2 27.5 2t25.5 -1l12 -1l129 -213q19 -32 1 -63q-26 -46 -73 -72q-11 -6 -6 -16q81 -151 239 -246q4 -2 9.5 -0.5t7.5 4.5q17 31 56 56q32 21 66 2l224 -122q3 -25 3 -32
q1 -70 -45.5 -124t-117.5 -64v0zM760 -13h5q8 0 17 2q51 7 85.5 46.5t33.5 90.5v2l-201 109q-7 4 -13 0q-25 -16 -41 -41t-45 -29v0q-22 -3 -40 8q-168 97 -259 266q-12 22 -4.5 46.5t30.5 37.5q35 19 54 53q3 5 -1 12l-116 191h-5q-12 0 -22 -2q-53 -7 -84.5 -40t-30.5 -81
q1 -55 8 -83v-2l1 -6q55 -224 206.5 -372t381.5 -201q15 -4 40 -7v0z" />
    <glyph glyph-name="tel" unicode="&#xe60f;" 
d="M992 704v0q7 -9 12 -17q19 -32 19 -69q0 -16 -4 -32v0q-1 -5 -4 -13q-34 -110 -116 -232.5t-193.5 -234t-233.5 -194t-232 -116.5q-5 -2 -13 -4h-1q-15 -4 -31 -4q-38 0 -69 19q-9 5 -17 12v0q-67 50 -100 112v0q-8 15 -8 33q0 28 20 48v0q61 64 197 141q5 2 8 4
q14 6 29 6q21 0 38 -11v0q13 -9 39 -28.5t37 -26.5q7 -7 16 -11q14 -6 29 -6q13 0 25 4v0q8 4 15 9q66 38 146 119q80 80 119 146q5 7 8 15v0q5 12 5 25q0 15 -6 29q-5 9 -11 16q-8 12 -27.5 38t-27.5 38v0q-12 17 -12 38q0 16 7 30q1 1 4 7q76 137 140 198h1q20 20 48 20
q17 0 32 -8v0q62 -33 112 -100z" />
    <glyph glyph-name="right-rotation" unicode="&#xe77d;" 
d="M840 152q-23 9 -40 -10v0q-62 -79 -160 -108t-197 6q-61 21 -108 64.5t-72 98.5t-30 118.5t18 125.5q22 61 65.5 108t98 72t118 30t125.5 -18q2 -2 8 -3.5t9 -3.5q-13 -36 -18 -51q-3 -8 -7 -19l-6 -16.5t-3 -7.5v0q-6 -8 -1 -20q9 -17 27 -10v0h1l19 9l131 62l33 16
q9 4 10 12q3 8 -1 15l-8 15l-7 20l-62 130l-9 19v2v0q-3 7 -11 9.5t-15 -0.5q-10 -4 -12 -16v0q-1 -2 -3 -7.5l-6 -16.5t-6 -19q-4 -9 -10.5 -28t-10.5 -29q-9 5 -16 7q-77 28 -155 22t-145 -37t-120.5 -89t-80.5 -133q-29 -76 -22.5 -154t37 -145t88.5 -120.5t133 -79.5
q121 -42 239 -8t194 128q8 7 9 14q6 14 -0.5 28t-20.5 18z" />
    <glyph glyph-name="left-rotation" unicode="&#xe77e;" 
d="M184 152q23 9 40 -10v0q62 -79 160 -108t197 6q61 21 108 64.5t72 98.5t30 118.5t-18 125.5q-22 61 -65.5 108t-98 72t-118 30t-125.5 -18q-2 -2 -8 -3.5t-9 -3.5q13 -36 18 -51q3 -8 7 -19l6 -16.5t3 -7.5v0q6 -8 1 -20q-9 -17 -27 -10v0h-1l-19 9l-131 62l-33 16
q-9 4 -10 12q-3 8 1 15l16 33l62 131l8 20v2v0q3 7 11 9.5t15 -0.5q10 -4 12 -16v0l15 -43q4 -9 10.5 -28t10.5 -29q9 5 16 7q77 28 155 22t145 -37t120.5 -89t80.5 -133q29 -76 22.5 -154t-37 -145t-88.5 -120.5t-133 -79.5q-121 -42 -239 -8t-194 128q-8 7 -9 14
q-6 14 0.5 28t20.5 18z" />
    <glyph glyph-name="close" unicode="&#xe723;" 
d="M557 383l266 264q9 9 9 22t-9.5 22.5t-22.5 9.5t-23 -9l-265 -264l-263 264q-9 9 -22.5 9t-23 -9t-9.5 -22.5t10 -22.5l263 -264l-265 -264q-10 -9 -10 -22.5t9.5 -22.5t22.5 -9t23 9l265 264l265 -267q10 -9 23 -9t22.5 9.5t9.5 22.5t-9 23z" />
    <glyph glyph-name="correct" unicode="&#xe72e;" 
d="M888 598q-10 9 -23 8.5t-22 -10.5l-427 -454l-233 230q-10 9 -23 9t-22.5 -9.5t-9.5 -23t10 -22.5l256 -253h1v0q1 -1 7 -4q0 -1 1 -1.5t2 -1.5q6 -2 12 -2t12 3q1 0 2 1t2 1q5 3 7 5v0v0l449 479q9 9 9 22.5t-10 22.5z" />
    <glyph glyph-name="icon-refresh" unicode="&#xe65e;" 
d="M56 632q3 5 10 14.5t29 36t46 50.5t61.5 53t75.5 49q65 35 142 42.5t146 -9t125 -51.5q49 -31 85.5 -62.5t48.5 -48.5l13 -16l94 54q1 0 2.5 0.5t5 1t6 -0.5t4.5 -4.5t2 -9.5v-339q0 -3 -0.5 -8t-6.5 -10.5t-16 -0.5q-21 10 -292 164q-16 7 -17.5 14.5t5.5 11.5l7 3
l92 53q-6 7 -17 18.5t-44.5 38.5t-67.5 42q-61 32 -121 35.5t-130 -22.5q-48 -19 -98 -63t-87 -107l-103 71v0zM904 184q-3 -5 -10 -14.5t-29 -36t-46 -50.5t-61.5 -53t-75.5 -49q-65 -35 -142 -42.5t-146 9t-125 51.5q-103 65 -145 125l-2 2l-94 -54q-1 0 -2.5 -0.5t-5 -1
t-6 0.5t-4.5 4.5t-2 9.5v339q0 3 0.5 7.5t6.5 10.5t16 1q21 -10 292 -165q16 -7 17.5 -14t-5.5 -11l-7 -4l-92 -52q6 -7 17 -19t44.5 -38.5t67.5 -42.5q61 -32 121 -35t130 23q48 18 98 62.5t87 106.5zM904 184z" />
    <glyph glyph-name="warning-empty" unicode="&#xe67e;" 
d="M512 -128q-139 0 -257 68.5t-186.5 186.5t-68.5 257t68.5 257t186.5 186.5t257 68.5t257 -68.5t186.5 -186.5t68.5 -257t-68.5 -257t-186.5 -186.5t-257 -68.5zM512 828q-90 0 -172.5 -35.5t-141.5 -94.5t-94.5 -141.5t-35.5 -172.5t35.5 -172.5t94.5 -141.5t141.5 -94.5
t172.5 -35.5t172.5 35.5t141.5 94.5t94.5 141.5t35.5 172.5t-35.5 172.5t-94.5 141.5t-141.5 94.5t-172.5 35.5zM512 77q-28 0 -48 20t-20 48t20 48t48 20t48 -20t20 -48t-20 -48t-48 -20zM512 282q-14 0 -24 20t-10 48l-34 307q0 28 20 48t48 20t48 -20t20 -48l-34 -307
q0 -28 -10 -48t-24 -20z" />
    <glyph glyph-name="tip-info-full" unicode="&#xe60c;" 
d="M512 896q-139 0 -257 -68.5t-186.5 -186.5t-68.5 -257t68.5 -257t186.5 -186.5t257 -68.5t257 68.5t186.5 186.5t68.5 257t-68.5 257t-186.5 186.5t-257 68.5zM448 448q0 26 19 45t45.5 19t45 -19t18.5 -45v-320q0 -26 -18.5 -45t-45 -19t-45.5 19t-19 45v320zM512.5 575
q-26.5 0 -45.5 18.5t-19 45t19 45.5t45.5 19t45 -19t18.5 -45.5t-18.5 -45t-45 -18.5z" />
    <glyph glyph-name="complete" unicode="&#xe60d;" 
d="M512 868q-99 0 -188.5 -38.5t-154 -103t-103 -154t-38.5 -188.5t38.5 -188.5t103 -154t154 -103t188.5 -38.5t188.5 38.5t154 103t103 154t38.5 188.5t-38.5 188.5t-103 154t-154 103t-188.5 38.5zM512 -43q-86 0 -165 34.5t-136 91.5t-91.5 136t-34.5 165t34.5 165
t91.5 136t136 91.5t165 34.5t165 -34.5t136 -91.5t91.5 -136t34.5 -165t-34.5 -165t-91.5 -136t-136 -91.5t-165 -34.5zM432 304l-91 91l-57 -57l148 -142l319 307l-57 52z" />
    <glyph glyph-name="arrow-bottom" unicode="&#xe60b;" 
d="M256 383l256 -386l256 386h-125v385h-258v-385h-129z" />
    <glyph glyph-name="arrow-top" unicode="&#xe64d;" 
d="M768 385l-256 386l-256 -386h125v-385h258v385h129z" />
    <glyph glyph-name="enlarge" unicode="&#xe605;" 
d="M965 -12v0l-265 266q81 98 85 221q3 73 -23 144.5t-76 124.5q-43 46 -100.5 76t-120.5 38q-24 4 -49 4q-127 0 -225 -78q-54 -42 -90.5 -102t-47.5 -128q-11 -63 0.5 -128t43.5 -120q44 -78 120 -127q69 -45 151 -56q24 -3 48 -3q117 0 212 67l264 -266l5 -4v0
q13 -11 31 -11q20 0 34.5 14.5t14.5 34.5q0 19 -12 33v0zM469 181q-69 -13 -137 7q-65 18 -118 63t-81 106q-33 69 -29 148.5t43 145.5q35 60 93 100t125 50l7 1q6 1 10 2q17 1 34 1q70 0 132 -29q55 -25 97 -70t64 -102q23 -61 20 -128.5t-32 -125.5q-33 -66 -94 -112
t-134 -57zM448 651h-52v-141h-140v-52h140v-141h52v141h141v52h-140z" />
    <glyph glyph-name="warning-full" unicode="&#xe60e;" 
d="M512 892q103 0 197 -40.5t162 -108.5t108.5 -162t40.5 -197t-40.5 -197t-108.5 -162t-162 -108.5t-197 -40.5t-197 40.5t-162 108.5t-108.5 162t-40.5 197t40.5 197t108.5 162t162 108.5t197 40.5zM512 210q-32 0 -54.5 -22.5t-22.5 -54.5t22.5 -54.5t54.5 -22.5
t54.5 22.5t22.5 54.5t-22.5 54.5t-54.5 22.5zM509.5 270q27.5 0 47 19.5t19.5 46.5v310q0 27 -19.5 46.5t-47 19.5t-46.5 -19.5t-19 -46.5v-310q0 -27 19 -46.5t46.5 -19.5z" />
    <glyph glyph-name="tip-info" unicode="&#xe632;" 
d="M512 -62q-91 0 -173.5 35.5t-142 95t-95 142t-35.5 173.5t35.5 173.5t95 142t142 95t173.5 35.5t173.5 -35.5t142 -95t95 -142t35.5 -173.5t-35.5 -173.5t-95 -142t-142 -95t-173.5 -35.5zM512 766q-104 0 -192 -51t-139 -139t-51 -192t51 -192t139 -139t192 -51t192 51
t139 139t51 192t-51 192t-139 139t-192 51zM464 592q0 -20 14 -34t34 -14t34 14t14 34t-14 34t-34 14t-34 -14t-14 -34zM512 128q-13 0 -22.5 9.5t-9.5 22.5v288q0 13 9.5 22.5t22.5 9.5t22.5 -9.5t9.5 -22.5v-288q0 -13 -9.5 -22.5t-22.5 -9.5z" />
    <glyph glyph-name="daliyhot" unicode="&#xe601;" horiz-adv-x="1297" 
d="M1 895v-204q0 -96 68.5 -165t164.5 -69h4q25 -129 122 -220.5t229 -108.5v-117h-177v-103h456v103h-177v117q131 17 228 109t122 222h5q96 0 164.5 69t68.5 166v201h-1278v0zM230 563v-2q-52 2 -89 40t-37 91v0v100h126v-229v0zM947 537q0 -127 -90 -218t-217 -91
t-217 90.5t-90 218.5v254h614v-254v0zM1176 692q0 -53 -36.5 -91t-89.5 -39v229h126v-99v0z" />
    <glyph glyph-name="love" unicode="&#xe602;" horiz-adv-x="1339" 
d="M653 -108v-20l-12 10l-12 -10v20l-378 325q-10 8 -27 22.5t-60.5 58.5t-76.5 87.5t-60 103t-27 111.5q0 138 97 217t260 79q48 0 91.5 -12.5t73 -30.5t55.5 -42t39.5 -42t24.5 -36q11 18 24.5 36t39.5 42t55.5 42t73 30.5t91.5 12.5q163 0 260 -79t97 -217
q0 -52 -26 -110.5t-63 -105t-73.5 -85.5t-62.5 -60l-26 -22l-378 -325v0z" />
    <glyph glyph-name="hot" unicode="&#xe604;" horiz-adv-x="1600" 
d="M940 519q-14 14 -33 23q-19 8 -42 8t-42 -8q-16 -8 -32 -25t-22 -33q-7 -21 -7 -43v-1q0 -25 7.5 -45.5t21.5 -35.5q13 -15 32 -23t42 -8h2q30 0 57.5 19.5t36.5 47.5q8 20 8 45q0 23 -8 44q-7 19 -21 35zM448 895h704q91 0 174 -35.5t143 -95t95.5 -142t35.5 -173.5
v-574l-213 128h-939q-91 0 -173.5 35.5t-142.5 95t-95.5 142t-35.5 173.5t35.5 173.5t95.5 142.5t143 95t173 35zM610 258v361h-87v-137h-141v137h-88v-361h88v151h141v-151h87zM1048 361.5q15 35.5 15 78.5t-15 78q-14 34 -41 59q-28 26 -63 38q-37 13 -77 13h-2
q-42 0 -78 -13q-35 -12 -63 -38q-26 -24 -41 -59q-15 -36 -15 -75v-3q0 -43 15 -79q12 -30 42.5 -59t61.5 -40q35 -14 78 -14t79 13.5t63 39.5q26 25 41 60.5zM1363 544v75h-292v-75h102v-286h88v286h102v0z" />
    <glyph glyph-name="sort-asc" unicode="&#xe606;" horiz-adv-x="1365" 
d="M683 896l682 -1024h-1365z" />
    <glyph glyph-name="sort-desc" unicode="&#xe607;" horiz-adv-x="1365" 
d="M683 -128l682 1024h-1365z" />
    <glyph glyph-name="search" unicode="&#xe608;" horiz-adv-x="1025" 
d="M1004 -17l-199 198q37 49 63 127.5t26 140.5q0 91 -35 173.5t-95 142.5t-143 95.5t-174 35.5t-173.5 -35.5t-142.5 -95.5t-95.5 -142.5t-35.5 -173.5t35.5 -174t95.5 -143t142.5 -95.5t173.5 -35.5q62 0 140.5 26.5t127.5 62.5l199 -198q18 -20 45 -20t45.5 19t18.5 45
q0 12 -5.5 25.5t-13.5 21.5v0zM128 448.5q0 86.5 42.5 160.5t116.5 116.5t160.5 42.5t160 -42.5t116.5 -116.5t43 -160.5t-43 -160t-116.5 -116.5t-160 -43t-160.5 43t-116.5 116.5t-42.5 160z" />
    <glyph glyph-name="view" unicode="&#xe609;" horiz-adv-x="1450" 
d="M0 350q4 11 12 31t37.5 76.5t65.5 108t97 114.5t130 108.5t167 76.5t206 31q85 0 164 -18.5t142 -50.5t119.5 -73t99 -86t78 -90.5t60 -86.5t41 -72.5t24.5 -50t7 -18.5q-4 -10 -12.5 -27.5t-40.5 -67t-69.5 -94.5t-101 -100t-134.5 -95t-170 -67t-207 -27t-206 26.5
t-167.5 68t-129.5 94t-97.5 101t-65 93.5t-38 68t-11.5 27zM725.5 85q87.5 0 161.5 40t117 109t43 150t-43 150t-117 109t-161.5 40t-161.5 -40t-117 -109t-43 -150t43 -150t117 -109t161.5 -40zM725 230h-1q-63 0 -108.5 45t-45.5 109t45.5 109t109.5 45h1q64 0 109 -45
t46 -109q0 -64 -45.5 -109t-110.5 -45v0z" />
    <glyph glyph-name="love-empty" unicode="&#xe60a;" horiz-adv-x="1416" 
d="M708 709q3 7 9.5 20t32 45t56.5 56.5t84 44.5t113 20q163 0 260 -79t97 -217q0 -52 -26 -110.5t-63 -104.5t-73.5 -85t-62.5 -60l-26 -22l-401 -345v837v0zM709 608v-639l335 281q10 7 26.5 20.5t58 53.5t73 78.5t58 89t26.5 91.5q0 111 -69.5 173t-203.5 62
q-51 0 -101 -21.5t-85 -52.5t-62.5 -62t-41.5 -52l-14 -22v0zM708 709q-3 8 -9.5 20.5t-32 44.5t-56.5 57t-84 45t-113 20q-162 0 -259.5 -79t-97.5 -217q0 -52 26 -110.5t63 -105t73.5 -85.5t62.5 -60l26 -21l401 -345v836v0zM708 604v-639l-334 281q-10 7 -26.5 20.5
t-58 54t-73.5 78.5t-58 88.5t-26 91.5q0 111 69.5 173t203.5 62q51 0 101.5 -23t83.5 -50.5t64 -63.5t40.5 -50t13.5 -23v0z" />
    <glyph glyph-name="more" unicode="&#xe603;" 
d="M676 386q1 4 1 8q0 20 -14 34l-199 198q-13 14 -33 14t-33.5 -13.5t-13.5 -33.5t14 -33l174 -174l-174 -173q-14 -14 -14 -34q0 -19 13.5 -33t33.5 -14t33 14l199 199q14 13 14 33q0 4 -1 8v0zM512 -128q-139 0 -257 68.5t-186.5 186.5t-68.5 257t68.5 257t186.5 186.5
t257 68.5t257 -68.5t186.5 -186.5t68.5 -257t-68.5 -257t-186.5 -186.5t-257 -68.5z" />
    <glyph glyph-name="ios" unicode="&#xe630;" 
d="M829 225q43 -59 95 -76q-22 -71 -77 -153q-76 -120 -153 -120q-23 0 -84 18q-45 18 -91 18q-38 0 -87 -22q-41 -18 -80 -18q-96 0 -183 157q-87 153 -87 306q0 141 69 226q71 87 172 87q14 0 51 -7q24 -5 58 -22q8 -4 19.5 -9.5t19 -9t12.5 -6.5q29 -8 32.5 -8t40.5 8
q27 5 54 21l51 26q15 7 44 7q70 0 128 -40q31 -21 62 -62q-51 -45 -70 -73q-40 -63 -40 -124q0 -63 44 -124zM621 703q-38 -33 -65 -44q-4 -2 -12.5 -4t-13.5 -3q-5 0 -16.5 -2t-19.5 -2q0 86 47 157q42 63 153 91q0 -4 2 -8.5t2 -6.5v-11q0 -29 -18 -83q-26 -51 -59 -84z
M621 703z" />
    <glyph glyph-name="calendar" unicode="&#xe611;" horiz-adv-x="1144" 
d="M0 776h1086v-904h-1086v904zM60 715v-783h964v783h-964zM301 896h60v-301h-60v301zM54 474h1032v-60h-1032v60zM723 896h60v-301h-60v301z" />
    <glyph glyph-name="jisuanqi" unicode="&#xe612;" 
d="M146 896h732v0q30 0 51.5 -21.5t21.5 -51.5v-878q0 -30 -21.5 -51.5t-51.5 -21.5h-732q-30 0 -51.5 21.5t-21.5 51.5v878q0 30 21.5 51.5t51.5 21.5zM219 823q-30 0 -51.5 -21.5t-21.5 -51.5v-732q0 -30 21.5 -51.5t51.5 -21.5h586v0q30 0 51.5 21.5t21.5 51.5v732
q0 30 -21.5 51.5t-51.5 21.5h-586zM219 384h147v-73h-147v73zM219 238h147v-73h-147v73zM219 91h147v-73h-147v73zM439 384h146v-73h-146v73zM439 238h146v-73h-146v73zM439 91h146v-73h-146v73zM658 384h147v-73h-147v73zM658 238h147v-73h-147v73zM658 91h147v-73h-147v73
zM219 750h586v-293h-586v293zM293 677v-147h438v147h-438z" />
    <glyph glyph-name="duanxinicon" unicode="&#xe613;" 
d="M512 -128q-139 0 -257 68.5t-186.5 186.5t-68.5 257t68.5 257t186.5 186.5t257 68.5t257 -68.5t186.5 -186.5t68.5 -257t-68.5 -257t-186.5 -186.5t-257 -68.5zM752 581q-7 8 -19 8v0h-428q-11 0 -19 -8t-8 -19v0v-293q0 -12 8 -20t19 -8h85l-7 -57q0 -11 10.5 -16.5
t19.5 0.5l108 73h212q11 0 19 8t8 19v1v293q0 11 -8 19zM379 414.5q0 11.5 8.5 20t20 8.5t19.5 -8.5t8 -20t-8 -19.5t-19.5 -8t-20 8t-8.5 19.5zM519.5 387q-11.5 0 -20 8t-8.5 20q0 11 8.5 19t20 8t19.5 -8t8 -19q0 -12 -8 -20t-19.5 -8zM631 387v0q-12 0 -20 8t-8 20t8 20
t20 8v0q12 0 20 -8.5t8 -19.5t-8 -19.5t-20 -8.5v0z" />
    <glyph glyph-name="success" unicode="&#xe614;" 
d="M512 -128q-139 0 -257 68.5t-186.5 186.5t-68.5 257t68.5 257t186.5 186.5t257 68.5t257 -68.5t186.5 -186.5t68.5 -257t-68.5 -257t-186.5 -186.5t-257 -68.5zM268 361l174 -174l315 315l-32 33l-283 -283l-141 141l-33 -32v0z" />
    <glyph glyph-name="bianjiicon" unicode="&#xe615;" 
d="M512 -128q-139 0 -257 68.5t-186.5 186.5t-68.5 257t68.5 257t186.5 186.5t257 68.5t257 -68.5t186.5 -186.5t68.5 -257t-68.5 -257t-186.5 -186.5t-257 -68.5zM719 159q25 0 42 17.5t17 41.5v298q0 25 -17 42.5t-42 17.5h-29q-13 0 -21.5 8.5t-8.5 20.5v1v-30
q0 24 -17.5 41.5t-41.5 17.5h-177q-25 0 -42.5 -17.5t-17.5 -41.5v30v-1q0 -12 -8.5 -20.5t-20.5 -8.5h-30q-24 0 -41.5 -17.5t-17.5 -42.5v-298q0 -24 17.5 -41.5t41.5 -17.5h414zM512 248q-49 0 -83.5 35t-34.5 84.5t34.5 84t83.5 34.5t83.5 -34.5t34.5 -84t-34.5 -84.5
t-83.5 -35v0zM512.5 427q-24.5 0 -42 -17.5t-17.5 -42t17.5 -42t42 -17.5t41.5 17.5t17 42t-17 42t-41.5 17.5z" />
    <glyph glyph-name="kongjianicon" unicode="&#xe616;" 
d="M512 -128q-139 0 -257 68.5t-186.5 186.5t-68.5 257t68.5 257t186.5 186.5t257 68.5t257 -68.5t186.5 -186.5t68.5 -257t-68.5 -257t-186.5 -186.5t-257 -68.5zM769 456q-18 6 -60.5 11t-75.5 7l-33 2q-68 148 -80 166q-5 5 -10 4t-8 -4q-8 -10 -19.5 -31t-22 -43.5
t-20 -43.5t-15.5 -35l-5 -13q-131 -15 -156 -19q-12 -2 -14 -9t1 -12l4 -5l125 -112q-29 -129 -37 -161q-2 -14 3.5 -19t12.5 -3l7 2l150 86q113 -70 138 -83q11 -4 16 -2.5t6 5.5l1 4l-22 138q21 7 29 17l-7 -1q-7 -2 -23 -5q-49 -7 -117 -10t-141 2l156 124v0
q-24 13 -185 16q17 3 45 6.5t100 4.5t127 -11l-164 -119q9 -1 25 -3t63 -4.5t90 -1.5l-3 20q102 97 119 115q7 9 6 13.5t-6 6.5v0z" />
    <glyph glyph-name="shang" unicode="&#xe617;" horiz-adv-x="1365" 
d="M683 896l682 -1024h-1365z" />
    <glyph glyph-name="failed" unicode="&#xe619;" 
d="M512 -128q-139 0 -257 68.5t-186.5 186.5t-68.5 257t68.5 257t186.5 186.5t257 68.5t257 -68.5t186.5 -186.5t68.5 -257t-68.5 -257t-186.5 -186.5t-257 -68.5zM483 194v-59h58v59h-58zM483 633v-366h58v366h-58z" />
    <glyph glyph-name="xia" unicode="&#xe61a;" horiz-adv-x="1365" 
d="M683 -128l682 1024h-1365z" />
    <glyph glyph-name="weixinicon" unicode="&#xe61b;" 
d="M512 -128q-139 0 -257 68.5t-186.5 186.5t-68.5 257t68.5 257t186.5 186.5t257 68.5t257 -68.5t186.5 -186.5t68.5 -257t-68.5 -257t-186.5 -186.5t-257 -68.5zM619 478q12 0 19 -3q-12 61 -70.5 102t-133.5 41q-83 0 -141.5 -50t-58.5 -121q0 -78 81 -135l-19 -62l71 35
q52 -9 71 -9h20q-10 16 -10 40q0 66 50 114t121 48zM512 532q11 0 18.5 -7t7.5 -19q0 -11 -7 -18.5t-19 -7.5t-21.5 7t-9.5 19q0 11 9.5 18.5t21.5 7.5zM370 480q-11 0 -20 8t-9 18.5t9 18t22 7.5q11 0 18.5 -7t7.5 -19q-4 -26 -28 -26zM805 319q0 60 -51.5 103.5
t-120.5 43.5q-71 0 -121 -43.5t-50 -104t50 -103.5t121 -43q22 0 60 9l55 -31l-15 52q72 55 72 117v0zM576 345q-7 0 -13 6t-6 13t6 13t13 6q11 0 19 -6t8 -13q0 -8 -7.5 -13.5t-19.5 -5.5zM688 345q-7 0 -13 6t-6 13t6 13t13 6q11 0 18.5 -6t7.5 -13q0 -8 -7 -13.5
t-19 -5.5z" />
    <glyph glyph-name="weiboicon" unicode="&#xe61c;" 
d="M512 -128q-139 0 -257 68.5t-186.5 186.5t-68.5 257t68.5 257t186.5 186.5t257 68.5t257 -68.5t186.5 -186.5t68.5 -257t-68.5 -257t-186.5 -186.5t-257 -68.5zM666 393q-5 2 -7 3t-4 4.5t1 8.5q16 39 1 61q-16 21 -53 20.5t-84 -19.5v-1q-15 -6 -16 2q0 3 1 5
q16 50 -7 72q-25 26 -84 3t-117 -81q-92 -92 -92 -172q0 -49 38.5 -87t96.5 -57.5t123 -19.5q118 0 198 56t80 118q0 32 -22 53t-53 31zM463 172q-76 -8 -133.5 22t-62.5 80t45.5 91t127 48.5t133.5 -22.5t62 -80t-45.5 -91t-126.5 -48v0zM473 362q-36 9 -72 -6.5t-52 -47.5
q-16 -33 -2 -64.5t51 -43.5q38 -12 76.5 4.5t54.5 51.5q15 34 -1.5 65t-54.5 41zM436.5 251q-7.5 -12 -21 -16.5t-25.5 1t-15 17.5t4.5 23.5t20.5 16t25 -0.5t15.5 -17t-4 -24zM469 293q-7 -12 -18 -7q-10 4 -4 15t17 7t5 -15v0zM715 523q-9 11 -26.5 18.5t-31.5 7.5
q-9 0 -17 -2q-7 -1 -12 -7t-5 -13q0 -8 6 -14t15 -6q2 0 5 1v0h8q17 0 28 -12q15 -17 8 -38v0q-1 -3 -1 -6q0 -9 6 -15t15 -6q14 0 19 14q4 12 4 24.5t-6 28t-15 25.5zM777 579q-20 22 -55 37.5t-65 15.5q-18 0 -34 -3v0q-8 -2 -13.5 -9t-5.5 -14q0 -10 7 -17t17 -7q2 0 4 1
q12 2 25 2q21 0 46 -11t39 -27q13 -14 21.5 -36.5t8.5 -40.5t-5 -36q-1 -3 -1 -7q0 -9 6.5 -16t16.5 -7q7 0 13.5 4.5t8.5 11.5v0q8 24 8 50t-12 57.5t-30 51.5v0z" />
    <glyph glyph-name="zhongzhiicon" unicode="&#xe61d;" horiz-adv-x="1170" 
d="M146 384q0 104 40.5 199t109.5 163.5t163.5 109t198.5 40.5t199 -40.5t163.5 -109t109 -163.5t40.5 -199t-40.5 -199t-109 -163.5t-163.5 -109t-199 -40.5v73q90 0 171 35t140 93.5t93.5 140t34.5 170.5t-34.5 170.5t-93.5 140t-140 93.5t-170.5 35t-170.5 -35
t-140 -93.5t-94 -140t-35 -170.5h-73zM0 384h366l-147 -219z" />
    <glyph glyph-name="xiazaiicon" unicode="&#xe61e;" 
d="M962 86v-30q0 -51 -35 -87t-85 -36h-661q-50 0 -85.5 36t-35.5 87v153q0 12 9 21t21.5 9t21 -9t8.5 -21v-153q0 -26 18 -44t43 -18h661q25 0 42.5 18t17.5 44v153q0 12 9 21t21.5 9t21 -9t8.5 -21v-123zM852 582l-311 -315v538v0q0 13 -8.5 22t-21 9t-21.5 -9t-9 -22
v-537l-310 316q-9 9 -21.5 9t-21 -9t-8.5 -21.5t8 -21.5l359 -365l1 -1.5t2 -2.5v-1h0.5t0.5 -1q9 -7 20.5 -7t19.5 7q0 1 0.5 1h0.5l362 368q9 9 9 21.5t-9 21.5t-21.5 9t-20.5 -9v0z" />
    <glyph glyph-name="QQicon" unicode="&#xe61f;" 
d="M512 -128q-139 0 -257 68.5t-186.5 186.5t-68.5 257t68.5 257t186.5 186.5t257 68.5t257 -68.5t186.5 -186.5t68.5 -257t-68.5 -257t-186.5 -186.5t-257 -68.5zM722 342q0 1 -22 45.5t-22 60.5v0v4q0 75 -46.5 128t-112 53t-112 -53t-46.5 -128v-1.5v-2.5v0
q0 -16 -22 -60.5t-22 -45.5q-14 -37 -7 -67q6 -30 11 -35q8 -8 20 0q4 4 9 10t8 10l3 5q9 -26 28 -45q-13 -6 -25.5 -16t-13.5 -17t7 -18t28 -22t46 -11q52 -1 78 26q3 2 5.5 4.5l3.5 3.5l1 1q5 -4 10 -9q27 -27 79 -26q26 0 46 11t28 22t7 18t-13.5 17t-25.5 16q9 9 16 20
t9 18l3 7q11 -17 20 -25q12 -8 20 0q5 4 11 35q7 30 -7 67z" />
    <glyph glyph-name="diannaoicon" unicode="&#xe620;" horiz-adv-x="1160" 
d="M546 -60v137h-478q-28 0 -48 20t-20 48v683q0 28 20 48t48 20h1024q29 0 49 -20t20 -48v-683q0 -28 -20 -48t-49 -20h-478v-137h205v-68h-478v68h205zM1092 350v478h-1024v-478h1024zM1092 282h-1024v-137h1024v137z" />
    <glyph glyph-name="weigouxuanicon" unicode="&#xe621;" 
d="M512 -128q-139 0 -257 68.5t-186.5 186.5t-68.5 257t68.5 257t186.5 186.5t257 68.5t257 -68.5t186.5 -186.5t68.5 -257t-68.5 -257t-186.5 -186.5t-257 -68.5zM512 -60q90 0 172.5 35.5t141.5 94.5t94.5 141.5t35.5 172.5t-35.5 172.5t-94.5 141.5t-141.5 94.5
t-172.5 35.5t-172.5 -35.5t-141.5 -94.5t-94.5 -141.5t-35.5 -172.5t35.5 -172.5t94.5 -141.5t141.5 -94.5t172.5 -35.5z" />
    <glyph glyph-name="shoujiicon" unicode="&#xe622;" 
d="M796 156v683h-568v-683h568zM796 100h-568v-171h568v171zM228 896h568q24 0 40.5 -16.5t16.5 -40.5v-910q0 -24 -16.5 -40.5t-40.5 -16.5h-568v0q-24 0 -40.5 16.5t-16.5 40.5v910q0 24 16.5 40.5t40.5 16.5zM455 43h114v-57h-114v57z" />
    <glyph glyph-name="gouxuanicon" unicode="&#xe623;" 
d="M466 257l290 289l48 -48l-338 -338l-24 24l-169 169l48 49zM512 -128q-139 0 -257 68.5t-186.5 186.5t-68.5 257t68.5 257t186.5 186.5t257 68.5t257 -68.5t186.5 -186.5t68.5 -257t-68.5 -257t-186.5 -186.5t-257 -68.5zM512 -60q90 0 172.5 35.5t141.5 94.5t94.5 141.5
t35.5 172.5t-35.5 172.5t-94.5 141.5t-141.5 94.5t-172.5 35.5t-172.5 -35.5t-141.5 -94.5t-94.5 -141.5t-35.5 -172.5t35.5 -172.5t94.5 -141.5t141.5 -94.5t172.5 -35.5z" />
    <glyph glyph-name="checkbox" unicode="&#xe624;" 
d="M73 896h878v0q30 0 51.5 -21.5t21.5 -51.5v-878q0 -30 -21.5 -51.5t-51.5 -21.5h-878q-30 0 -51.5 21.5t-21.5 51.5v878q0 30 21.5 51.5t51.5 21.5zM146 823q-30 0 -51.5 -21.5t-21.5 -51.5v-732q0 -30 21.5 -51.5t51.5 -21.5h732v0q30 0 51.5 21.5t21.5 51.5v732
q0 30 -21.5 51.5t-51.5 21.5h-732z" />
    <glyph glyph-name="checkbox-active" unicode="&#xe625;" 
d="M73 896h878v0q30 0 51.5 -21.5t21.5 -51.5v-878q0 -30 -21.5 -51.5t-51.5 -21.5h-878q-30 0 -51.5 21.5t-21.5 51.5v878q0 30 21.5 51.5t51.5 21.5zM199 340l201 -201l40 40l-201 202zM400 139l40 -40l442 442l-40 41z" />
    <glyph glyph-name="down" unicode="&#xe626;" 
d="M512 268l213 213l28 -29l-227 -227l-14 14l-14 -14l-227 227l28 29zM512 -128q-139 0 -257 68.5t-186.5 186.5t-68.5 257t68.5 257t186.5 186.5t257 68.5t257 -68.5t186.5 -186.5t68.5 -257t-68.5 -257t-186.5 -186.5t-257 -68.5zM512 -60q90 0 172.5 35.5t141.5 94.5
t94.5 141.5t35.5 172.5t-35.5 172.5t-94.5 141.5t-141.5 94.5t-172.5 35.5t-172.5 -35.5t-141.5 -94.5t-94.5 -141.5t-35.5 -172.5t35.5 -172.5t94.5 -141.5t141.5 -94.5t172.5 -35.5z" />
    <glyph glyph-name="up" unicode="&#xe627;" 
d="M512 500l213 -213l28 29l-227 227l-14 -14l-14 14l-227 -227l28 -29zM512 896q-139 0 -257 -68.5t-186.5 -186.5t-68.5 -257t68.5 -257t186.5 -186.5t257 -68.5t257 68.5t186.5 186.5t68.5 257t-68.5 257t-186.5 186.5t-257 68.5zM512 828q90 0 172.5 -35.5t141.5 -94.5
t94.5 -141.5t35.5 -172.5t-35.5 -172.5t-94.5 -141.5t-141.5 -94.5t-172.5 -35.5t-172.5 35.5t-141.5 94.5t-94.5 141.5t-35.5 172.5t35.5 172.5t94.5 141.5t141.5 94.5t172.5 35.5z" />
    <glyph glyph-name="ucode" unicode="&#xe628;" horiz-adv-x="1675" 
d="M1583 896h-1491q-38 0 -65 -27t-27 -66v0v-101q39 -14 66 -52.5t27 -79.5t-27 -79.5t-66 -52.5v-109q39 -13 66 -51.5t27 -79.5t-27 -79.5t-66 -52.5v-101q0 -39 27 -66t65 -27h1491q38 0 65.5 27t27.5 66v0v838v0q0 39 -27.5 66t-65.5 27zM93 -35v47q44 32 68.5 81
t24.5 104.5t-24.5 104.5t-68.5 82q39 29 66 83.5t27 102.5t-27 103t-66 84v46h1490v-838h-1490zM942 371q0 -150 -104 -150t-104 150v279h-127v-302q0 -230 230.5 -230t230.5 230v302h-126v-279z" />
    <glyph glyph-name="tips" unicode="&#xe629;" 
d="M546 213h68v-68h-204v68h68v342h68v-342zM512 -128q-139 0 -257 68.5t-186.5 186.5t-68.5 257t68.5 257t186.5 186.5t257 68.5t257 -68.5t186.5 -186.5t68.5 -257t-68.5 -257t-186.5 -186.5t-257 -68.5zM512 -60q90 0 172.5 35.5t141.5 94.5t94.5 141.5t35.5 172.5
t-35.5 172.5t-94.5 141.5t-141.5 94.5t-172.5 35.5t-172.5 -35.5t-141.5 -94.5t-94.5 -141.5t-35.5 -172.5t35.5 -172.5t94.5 -141.5t141.5 -94.5t172.5 -35.5zM478 691h68v-68h-68v68zM410 555h68v-69h-68v69z" />
    <glyph glyph-name="lianjie" unicode="&#xe62a;" 
d="M767 272v0q-16 0 -26.5 10.5t-10.5 25.5q0 16 11 27l151 151q58 58 58 139v1q0 34 -17 74.5t-40.5 64t-64.5 40.5t-74 17h-1v0q-34 0 -74.5 -17t-64.5 -40l-151 -152q-11 -11 -27 -11q-15 0 -26 10.5t-11 26.5q0 15 11 26l152 152q32 33 88 56t102 23h1q112 0 191.5 -79
t79.5 -191.5t-79 -191.5l-152 -152q-11 -10 -26 -10zM270 -128v0q-47 0 -102.5 23t-88.5 56t-56 89t-23 102.5t23 102.5t56 89l152 152q11 11 26 11t26 -11t11 -26q0 -16 -11 -27l-152 -151q-23 -24 -40 -65t-17 -74.5t17 -74.5t40 -65q58 -57 140 -57v0q34 0 74.5 16.5
t64.5 40.5l151 152q11 11 27 11q15 0 25.5 -11t10.5 -26t-11 -26l-151 -152q-79 -79 -192 -79v0zM289 125v0q-15 0 -26 10.5t-11 26t11 26.5l396 396q11 11 27 11q15 0 26 -11t11 -26t-11 -26l-396 -396q-11 -11 -26 -11v0h-1z" />
  </font>
</defs>
</svg>
